#N canvas 230 164 1105 560 10;
#X obj 486 274 print B;
#N canvas 582 315 467 421 make 0;
#X obj 28 6 inlet;
#X obj 184 377 outlet;
#X obj 28 52 moses 128;
#X obj 130 100 trigger float float;
#N canvas 455 380 653 358 set 0;
#X obj 26 3 inlet;
#X obj 34 307 outlet;
#X text 85 31 0xF0;
#X obj 26 31 moses 240;
#X text 79 307 length in byte count;
#X msg 283 122 2;
#X obj 26 60 & 240;
#X obj 26 101 select 144 160 176 192 208 224;
#X text 29 86 0x90 0xA0 0xB0 0xC0 0xD0 0xE0;
#X msg 251 122 2;
#X text 282 83 0xF4 0xF9;
#X obj 195 242 print [arduino]_WARNING_currently_unsupported;
#X msg 55 122 160;
#X msg 26 122 2;
#X msg 85 122 176;
#X msg 114 122 1;
#X msg 144 122 1;
#X msg 173 122 2;
#X text 348 69 sysex;
#X msg 315 122 999999;
#X text 362 121 <-- sets sysex size limit;
#X text 62 60 strip channel info;
#X text 342 83 0xF0;
#X obj 251 101 select 244 249 240;
#X connect 0 0 3 0;
#X connect 3 0 6 0;
#X connect 3 1 23 0;
#X connect 5 0 1 0;
#X connect 6 0 7 0;
#X connect 7 0 13 0;
#X connect 7 1 12 0;
#X connect 7 2 14 0;
#X connect 7 3 15 0;
#X connect 7 4 16 0;
#X connect 7 5 17 0;
#X connect 9 0 1 0;
#X connect 12 0 11 0;
#X connect 13 0 1 0;
#X connect 14 0 11 0;
#X connect 15 0 1 0;
#X connect 16 0 1 0;
#X connect 17 0 1 0;
#X connect 19 0 1 0;
#X connect 23 0 9 0;
#X connect 23 1 5 0;
#X connect 23 2 19 0;
#X restore 241 127 pd set message length;
#X obj 184 298 mapping/tolist;
#X obj 79 250 select 0;
#X obj 79 228 float;
#X obj 117 228 - 1;
#X obj 79 178 trigger bang float;
#X text 89 52 only process command bytes;
#X text 140 78 end of sysex;
#X obj 79 79 route 247;
#X obj 79 100 bang;
#X connect 0 0 2 0;
#X connect 2 0 9 0;
#X connect 2 1 12 0;
#X connect 3 0 9 0;
#X connect 3 1 4 0;
#X connect 4 0 7 1;
#X connect 5 0 1 0;
#X connect 6 0 5 1;
#X connect 7 0 8 0;
#X connect 7 0 6 0;
#X connect 8 0 7 1;
#X connect 9 0 7 0;
#X connect 9 1 5 0;
#X connect 12 0 13 0;
#X connect 12 1 3 0;
#X connect 13 0 5 1;
#X restore 371 283 pd make lists;
#N canvas 83 321 541 319 convert 0;
#X obj 142 278 outlet;
#X obj 340 150 print UNKNOWN_INPUT_COMMAND;
#N canvas 126 79 1177 383 digital 0;
#X obj 407 4 inlet;
#X obj 412 352 outlet;
#X obj 33 104 mapping/debytemask;
#X obj 407 48 route 0 1 2 3 4 5 6 7;
#X msg 33 132 digital 0 \$1;
#X msg 42 152 digital 1 \$1;
#X msg 51 172 digital 2 \$1;
#X msg 58 192 digital 3 \$1;
#X msg 65 212 digital 4 \$1;
#X msg 71 232 digital 5 \$1;
#X msg 78 252 digital 6 \$1;
#X msg 86 273 digital 7 \$1;
#X obj 33 298 trigger anything;
#X obj 173 104 mapping/debytemask;
#X obj 173 298 trigger anything;
#X obj 313 104 mapping/debytemask;
#X obj 313 298 trigger anything;
#X obj 453 104 mapping/debytemask;
#X obj 453 298 trigger anything;
#X obj 593 104 mapping/debytemask;
#X obj 593 298 trigger anything;
#X obj 733 104 mapping/debytemask;
#X obj 733 298 trigger anything;
#X obj 873 104 mapping/debytemask;
#X obj 873 298 trigger anything;
#X obj 1013 104 mapping/debytemask;
#X obj 1013 298 trigger anything;
#X msg 173 132 digital 8 \$1;
#X msg 182 152 digital 9 \$1;
#X msg 191 172 digital 10 \$1;
#X msg 198 192 digital 11 \$1;
#X msg 205 212 digital 12 \$1;
#X msg 211 232 digital 13 \$1;
#X msg 218 252 digital 14 \$1;
#X msg 226 273 digital 15 \$1;
#X msg 313 132 digital 16 \$1;
#X msg 322 152 digital 17 \$1;
#X msg 331 172 digital 18 \$1;
#X msg 338 192 digital 19 \$1;
#X msg 345 212 digital 20 \$1;
#X msg 351 232 digital 21 \$1;
#X msg 358 252 digital 22 \$1;
#X msg 366 273 digital 23 \$1;
#X msg 453 132 digital 24 \$1;
#X msg 462 152 digital 25 \$1;
#X msg 471 172 digital 26 \$1;
#X msg 478 192 digital 27 \$1;
#X msg 485 212 digital 28 \$1;
#X msg 491 232 digital 29 \$1;
#X msg 498 252 digital 30 \$1;
#X msg 506 273 digital 31 \$1;
#X msg 593 132 digital 32 \$1;
#X msg 602 152 digital 33 \$1;
#X msg 611 172 digital 34 \$1;
#X msg 618 192 digital 35 \$1;
#X msg 625 212 digital 36 \$1;
#X msg 631 232 digital 37 \$1;
#X msg 638 252 digital 38 \$1;
#X msg 646 273 digital 39 \$1;
#X msg 733 132 digital 40 \$1;
#X msg 742 152 digital 41 \$1;
#X msg 751 172 digital 42 \$1;
#X msg 758 192 digital 43 \$1;
#X msg 765 212 digital 44 \$1;
#X msg 771 232 digital 45 \$1;
#X msg 778 252 digital 46 \$1;
#X msg 786 273 digital 47 \$1;
#X msg 873 132 digital 48 \$1;
#X msg 882 152 digital 49 \$1;
#X msg 891 172 digital 50 \$1;
#X msg 898 192 digital 51 \$1;
#X msg 905 212 digital 52 \$1;
#X msg 911 232 digital 53 \$1;
#X msg 918 252 digital 54 \$1;
#X msg 926 273 digital 55 \$1;
#X msg 1013 132 digital 56 \$1;
#X msg 1022 152 digital 57 \$1;
#X msg 1030 172 digital 58 \$1;
#X msg 1038 192 digital 59 \$1;
#X msg 1045 212 digital 60 \$1;
#X msg 1051 232 digital 61 \$1;
#X msg 1058 252 digital 62 \$1;
#X msg 1066 273 digital 63 \$1;
#X connect 0 0 3 0;
#X connect 2 0 4 0;
#X connect 2 1 5 0;
#X connect 2 2 6 0;
#X connect 2 3 7 0;
#X connect 2 4 8 0;
#X connect 2 5 9 0;
#X connect 2 6 10 0;
#X connect 2 7 11 0;
#X connect 3 0 2 0;
#X connect 3 1 13 0;
#X connect 3 2 15 0;
#X connect 3 3 17 0;
#X connect 3 4 19 0;
#X connect 3 5 21 0;
#X connect 3 6 23 0;
#X connect 3 7 25 0;
#X connect 4 0 12 0;
#X connect 5 0 12 0;
#X connect 6 0 12 0;
#X connect 7 0 12 0;
#X connect 8 0 12 0;
#X connect 9 0 12 0;
#X connect 10 0 12 0;
#X connect 11 0 12 0;
#X connect 12 0 1 0;
#X connect 13 0 27 0;
#X connect 13 1 28 0;
#X connect 13 2 29 0;
#X connect 13 3 30 0;
#X connect 13 4 31 0;
#X connect 13 5 32 0;
#X connect 13 6 33 0;
#X connect 13 7 34 0;
#X connect 14 0 1 0;
#X connect 15 0 35 0;
#X connect 15 1 36 0;
#X connect 15 2 37 0;
#X connect 15 3 38 0;
#X connect 15 4 39 0;
#X connect 15 5 40 0;
#X connect 15 6 41 0;
#X connect 15 7 42 0;
#X connect 16 0 1 0;
#X connect 17 0 43 0;
#X connect 17 1 44 0;
#X connect 17 2 45 0;
#X connect 17 3 46 0;
#X connect 17 4 47 0;
#X connect 17 5 48 0;
#X connect 17 6 49 0;
#X connect 17 7 50 0;
#X connect 18 0 1 0;
#X connect 19 0 51 0;
#X connect 19 1 52 0;
#X connect 19 2 53 0;
#X connect 19 3 54 0;
#X connect 19 4 55 0;
#X connect 19 5 56 0;
#X connect 19 6 57 0;
#X connect 19 7 58 0;
#X connect 20 0 1 0;
#X connect 21 0 59 0;
#X connect 21 1 60 0;
#X connect 21 2 61 0;
#X connect 21 3 62 0;
#X connect 21 4 63 0;
#X connect 21 5 64 0;
#X connect 21 6 65 0;
#X connect 21 7 66 0;
#X connect 22 0 1 0;
#X connect 23 0 67 0;
#X connect 23 1 68 0;
#X connect 23 2 69 0;
#X connect 23 3 70 0;
#X connect 23 4 71 0;
#X connect 23 5 72 0;
#X connect 23 6 73 0;
#X connect 23 7 74 0;
#X connect 24 0 1 0;
#X connect 25 0 75 0;
#X connect 25 1 76 0;
#X connect 25 2 77 0;
#X connect 25 3 78 0;
#X connect 25 4 79 0;
#X connect 25 5 80 0;
#X connect 25 6 81 0;
#X connect 25 7 82 0;
#X connect 26 0 1 0;
#X connect 27 0 14 0;
#X connect 28 0 14 0;
#X connect 29 0 14 0;
#X connect 30 0 14 0;
#X connect 31 0 14 0;
#X connect 32 0 14 0;
#X connect 33 0 14 0;
#X connect 34 0 14 0;
#X connect 35 0 16 0;
#X connect 36 0 16 0;
#X connect 37 0 16 0;
#X connect 38 0 16 0;
#X connect 39 0 16 0;
#X connect 40 0 16 0;
#X connect 41 0 16 0;
#X connect 42 0 16 0;
#X connect 43 0 18 0;
#X connect 44 0 18 0;
#X connect 45 0 18 0;
#X connect 46 0 18 0;
#X connect 47 0 18 0;
#X connect 48 0 18 0;
#X connect 49 0 18 0;
#X connect 50 0 18 0;
#X connect 51 0 20 0;
#X connect 52 0 20 0;
#X connect 53 0 20 0;
#X connect 54 0 20 0;
#X connect 55 0 20 0;
#X connect 56 0 20 0;
#X connect 57 0 20 0;
#X connect 58 0 20 0;
#X connect 59 0 22 0;
#X connect 60 0 22 0;
#X connect 61 0 22 0;
#X connect 62 0 22 0;
#X connect 63 0 22 0;
#X connect 64 0 22 0;
#X connect 65 0 22 0;
#X connect 66 0 22 0;
#X connect 67 0 24 0;
#X connect 68 0 24 0;
#X connect 69 0 24 0;
#X connect 70 0 24 0;
#X connect 71 0 24 0;
#X connect 72 0 24 0;
#X connect 73 0 24 0;
#X connect 74 0 24 0;
#X connect 75 0 26 0;
#X connect 76 0 26 0;
#X connect 77 0 26 0;
#X connect 78 0 26 0;
#X connect 79 0 26 0;
#X connect 80 0 26 0;
#X connect 81 0 26 0;
#X connect 82 0 26 0;
#X restore 205 174 pd digital messages;
#N canvas 234 399 335 267 analog 0;
#X obj 65 16 inlet;
#X obj 65 213 outlet;
#X msg 65 150 analog \$1 \$2;
#X obj 65 129 pack float float;
#X obj 158 103 / 1023;
#X text 203 104 scale to 0-1;
#X obj 65 71 unpack float float;
#X connect 0 0 6 0;
#X connect 2 0 1 0;
#X connect 3 0 2 0;
#X connect 4 0 3 1;
#X connect 6 0 3 0;
#X connect 6 1 4 0;
#X restore 342 174 pd analog messages;
#X obj 97 13 inlet;
#N canvas 470 229 420 451 sysex 0;
#X obj 55 16 inlet;
#X obj 55 403 outlet;
#N canvas 1036 237 450 300 firmware 0;
#X obj 91 6 inlet;
#X obj 91 272 outlet;
#X obj 91 170 list prepend;
#X obj 91 206 list prepend firmware;
#X obj 91 239 list trim;
#X obj 160 116 moocow/string2any 32 -1;
#X obj 91 39 list split 2;
#N canvas 843 250 610 545 reassemble 0;
#X text 91 24 Firmata sends 8-bit chars as two 7-bit bytes;
#X obj 36 24 inlet;
#X obj 54 514 outlet;
#X obj 159 131 list split 2;
#X obj 196 206 list;
#X obj 109 256 trigger bang anything;
#X obj 232 280 unpack float float;
#X obj 232 340 +;
#X obj 54 403 mapping/tolist;
#X obj 193 154 route bang;
#X obj 337 303 << 7;
#X obj 193 179 bang;
#X obj 36 353 trigger bang bang;
#X obj 36 106 trigger bang anything;
#X text 249 179 reset the list if end of list or there is a single
byte left over;
#X connect 1 0 13 0;
#X connect 3 0 5 0;
#X connect 3 1 9 0;
#X connect 3 2 11 0;
#X connect 4 0 3 0;
#X connect 5 0 4 0;
#X connect 5 1 6 0;
#X connect 6 0 7 0;
#X connect 6 1 10 0;
#X connect 7 0 8 0;
#X connect 8 0 2 0;
#X connect 9 0 11 0;
#X connect 9 1 4 1;
#X connect 10 0 7 1;
#X connect 11 0 4 1;
#X connect 12 0 8 0;
#X connect 12 1 8 1;
#X connect 13 0 12 0;
#X connect 13 1 3 0;
#X restore 160 79 pd reassemble chars;
#X connect 0 0 6 0;
#X connect 2 0 3 0;
#X connect 3 0 4 0;
#X connect 4 0 1 0;
#X connect 5 0 2 1;
#X connect 6 0 2 0;
#X connect 6 1 7 0;
#X connect 6 2 7 0;
#X connect 7 0 5 0;
#X restore 55 225 pd firmware;
#N canvas 749 191 610 545 assemble 1;
#X text 91 24 Firmata sends 8-bit chars as two 7-bit bytes;
#X obj 36 24 inlet;
#X obj 54 514 outlet;
#X obj 159 131 list split 2;
#X obj 196 206 list;
#X obj 109 256 trigger bang anything;
#X obj 232 280 unpack float float;
#X obj 232 340 +;
#X obj 54 403 mapping/tolist;
#X obj 193 154 route bang;
#X obj 337 303 << 7;
#X obj 193 179 bang;
#X obj 36 353 trigger bang bang;
#X obj 36 106 trigger bang anything;
#X text 249 179 reset the list if end of list or there is a single
byte left over;
#X connect 1 0 13 0;
#X connect 3 0 5 0;
#X connect 3 1 9 0;
#X connect 3 2 11 0;
#X connect 4 0 3 0;
#X connect 5 0 4 0;
#X connect 5 1 6 0;
#X connect 6 0 7 0;
#X connect 6 1 10 0;
#X connect 7 0 8 0;
#X connect 8 0 2 0;
#X connect 9 0 11 0;
#X connect 9 1 4 1;
#X connect 10 0 7 1;
#X connect 11 0 4 1;
#X connect 12 0 8 0;
#X connect 12 1 8 1;
#X connect 13 0 12 0;
#X connect 13 1 3 0;
#X restore 159 277 pd assemble 7-bit into 14-bit values;
#X obj 159 326 list prepend;
#X obj 159 347 list trim;
#X obj 158 153 trigger anything anything;
#X msg 305 177 \$1;
#X obj 159 179 list split 1;
#X obj 305 201 select 112 113;
#X text 336 184 0x70 0x71;
#X msg 334 226 string;
#X msg 251 226 servo_config;
#X text 86 76 0x79;
#X obj 55 94 route 121;
#X text 96 401 data;
#X obj 163 403 outlet;
#X text 209 403 status;
#X connect 0 0 14 0;
#X connect 2 0 16 0;
#X connect 3 0 4 0;
#X connect 4 0 5 0;
#X connect 5 0 1 0;
#X connect 6 0 8 0;
#X connect 6 1 7 0;
#X connect 7 0 9 0;
#X connect 8 1 3 0;
#X connect 9 0 12 0;
#X connect 9 1 11 0;
#X connect 9 2 4 1;
#X connect 11 0 4 1;
#X connect 12 0 4 1;
#X connect 14 0 2 0;
#X connect 14 1 6 0;
#X restore 134 174 pd sysex;
#N canvas 383 54 457 452 route 0;
#X obj 46 24 inlet;
#X obj 175 400 outlet;
#X obj 233 400 outlet;
#X obj 46 91 trigger anything anything;
#X obj 292 400 outlet;
#X obj 175 339 route digital analog;
#X msg 193 115 \$1;
#X obj 244 158 moses 224;
#X text 314 157 0xE0 analog messages;
#X obj 193 136 moses 144;
#X text 257 136 0x90 digital messages;
#X obj 244 209 bang;
#X obj 295 209 bang;
#X msg 244 236 digital;
#X msg 297 236 analog;
#X text 359 178 0xF0;
#X obj 346 236 bang;
#X obj 211 236 bang;
#N canvas 147 640 335 257 parse 0;
#X obj 73 18 inlet;
#X obj 73 215 outlet;
#X obj 73 161 pack float float;
#X obj 73 64 unpack float float float;
#X obj 166 110 +;
#X obj 214 85 << 7;
#X obj 73 85 & 15;
#X connect 0 0 3 0;
#X connect 2 0 1 0;
#X connect 3 0 6 0;
#X connect 3 1 4 0;
#X connect 3 2 5 0;
#X connect 4 0 2 1;
#X connect 5 0 4 1;
#X connect 6 0 2 0;
#X restore 46 167 pd parse messages;
#X obj 295 178 moses 240;
#X obj 175 279 cyclone/prepend;
#X connect 0 0 3 0;
#X connect 3 0 18 0;
#X connect 3 1 6 0;
#X connect 5 0 1 0;
#X connect 5 1 2 0;
#X connect 5 2 4 0;
#X connect 6 0 9 0;
#X connect 7 0 11 0;
#X connect 7 1 19 0;
#X connect 9 0 17 0;
#X connect 9 1 7 0;
#X connect 11 0 13 0;
#X connect 12 0 14 0;
#X connect 13 0 20 1;
#X connect 14 0 20 1;
#X connect 16 0 20 1;
#X connect 17 0 20 1;
#X connect 18 0 20 0;
#X connect 19 0 12 0;
#X connect 19 1 16 0;
#X connect 20 0 5 0;
#X restore 205 126 pd route digital/analog;
#X obj 97 95 route 249 240;
#X text 124 80 0xF9 0xF0;
#X msg 40 174 version \$1 \$2;
#X obj 263 277 outlet;
#X text 312 279 status outlet;
#X text 184 277 data outlet;
#X connect 2 0 0 0;
#X connect 3 0 0 0;
#X connect 4 0 7 0;
#X connect 5 0 0 0;
#X connect 5 1 10 0;
#X connect 6 0 2 0;
#X connect 6 1 3 0;
#X connect 6 2 1 0;
#X connect 7 0 9 0;
#X connect 7 1 5 0;
#X connect 7 2 6 0;
#X connect 9 0 10 0;
#X restore 371 337 pd convert to symbolic commands;
#X text 528 162 0xF0 start_sysex;
#X text 527 183 0xF7 end_sysex;
#X obj 405 185 list append 247;
#X obj 405 163 list prepend 240 64;
#X obj 434 1049 print xANALOG;
#X obj 488 413 print xOUTRAS;
#X obj 371 363 route analog;
#X obj 443 390 route 64;
#X obj 542 471 print xCP;
#X text 499 389 Route messages from CP;
#X obj 1204 360 bng 15 250 50 0 empty empty empty 17 7 0 10 -262144
-1 -1;
#X floatatom 1115 210 5 0 0 0 - - -, f 5;
#X text 29 53 https://learn.adafruit.com/circuit-playground-firmata/firmata-extension-reference
;
#X obj 492 730 print ACCEL_TAP_REPLY;
#X obj 371 1011 route 0 4 5;
#X obj 467 855 b2f;
#X obj 467 801 list split 4;
#X obj 514 834 list split 4;
#X obj 509 861 b2f;
#X obj 548 883 b2f;
#X obj 374 96 r \$1-CP;
#X obj 406 135 r \$1-CP-SYSEX;
#X obj 374 226 comport \$1 115200;
#X obj 548 903 s \$1-CP_ACELL_Z;
#X obj 504 928 s \$1-CP_ACELL_Y;
#X obj 413 1081 s \$1-CP_A5;
#X obj 392 1108 s \$1-CP_A4;
#X obj 371 1133 s \$1-CP_A0;
#X obj 443 989 print \$1-SENSECOLOR_REPLY;
#X obj 467 961 s \$1-CP_ACELL_X;
#X obj 443 445 route 81 54 55 67;
#X obj 517 513 list split 1;
#X obj 528 700 s;
#X obj 519 653 f;
#X obj 519 623 t b s;
#X obj 519 591 makefilename \$1-CP_CAP_REPLY_%d;
#N canvas 749 191 610 545 assemble 0;
#X text 91 24 Firmata sends 8-bit chars as two 7-bit bytes;
#X obj 36 24 inlet;
#X obj 54 514 outlet;
#X obj 159 131 list split 2;
#X obj 196 206 list;
#X obj 109 256 trigger bang anything;
#X obj 232 280 unpack float float;
#X obj 232 340 +;
#X obj 54 403 mapping/tolist;
#X obj 193 154 route bang;
#X obj 337 303 << 7;
#X obj 193 179 bang;
#X obj 36 353 trigger bang bang;
#X obj 36 106 trigger bang anything;
#X text 249 179 reset the list if end of list or there is a single
byte left over;
#X connect 1 0 13 0;
#X connect 3 0 5 0;
#X connect 3 1 9 0;
#X connect 3 2 11 0;
#X connect 4 0 3 0;
#X connect 5 0 4 0;
#X connect 5 1 6 0;
#X connect 6 0 7 0;
#X connect 6 1 10 0;
#X connect 7 0 8 0;
#X connect 8 0 2 0;
#X connect 9 0 11 0;
#X connect 9 1 4 1;
#X connect 10 0 7 1;
#X connect 11 0 4 1;
#X connect 12 0 8 0;
#X connect 12 1 8 1;
#X connect 13 0 12 0;
#X connect 13 1 3 0;
#X restore 583 621 pd assemble 7-bit into 14-bit values;
#X obj 551 539 list split 2;
#X connect 1 0 2 0;
#X connect 2 0 9 0;
#X connect 5 0 25 0;
#X connect 6 0 5 0;
#X connect 9 0 17 0;
#X connect 9 1 10 0;
#X connect 10 0 33 0;
#X connect 10 1 8 0;
#X connect 17 0 30 0;
#X connect 17 1 29 0;
#X connect 17 2 28 0;
#X connect 17 3 7 0;
#X connect 18 0 32 0;
#X connect 19 0 18 0;
#X connect 19 1 20 0;
#X connect 20 0 21 0;
#X connect 20 1 22 0;
#X connect 21 0 27 0;
#X connect 22 0 26 0;
#X connect 23 0 25 0;
#X connect 24 0 6 0;
#X connect 25 0 1 0;
#X connect 25 1 0 0;
#X connect 33 0 31 0;
#X connect 33 1 19 0;
#X connect 33 2 16 0;
#X connect 33 3 34 0;
#X connect 33 4 11 0;
#X connect 34 0 38 0;
#X connect 34 1 40 0;
#X connect 36 0 35 0;
#X connect 37 0 36 0;
#X connect 37 1 35 1;
#X connect 38 0 37 0;
#X connect 39 0 36 1;
#X connect 40 0 39 0;
