#N canvas 234 166 1105 560 10;
#X obj 1204 360 bng 15 250 50 0 empty empty empty 17 7 0 10 -262144
-1 -1;
#X floatatom 1115 210 5 0 0 0 - - -, f 5;
#X obj 37 416 tgl 15 0 empty empty empty 17 7 0 10 -262144 -1 -1 0
1;
#X obj -10 92 CircuitPlayground 0;
#X text -46 115 Use serial port as creation argument;
#X obj 248 317 time, f 13;
#X floatatom 243 518 0 0 0 0 - - -;
#X text 335 404 sec;
#X text 278 515 min;
#X obj 235 235 metro 1000;
#X obj 238 203 tgl 15 0 empty empty empty 17 7 0 10 -262144 -1 -1 1
1;
#X obj 298 375 int;
#X floatatom 296 403 5 0 0 0 - - -, f 5;
#X obj 455 442 sel 0 1 2 3 4 5 6 7 8 9 10 11, f 95;
#X msg 784 486 4;
#X msg 833 482 3;
#X msg 882 482 2;
#X msg 919 484 1;
#X msg 502 472 9;
#X msg 550 473 8;
#X msg 596 475 7;
#X msg 644 480 6;
#X msg 692 484 5;
#X msg 732 483 4 \, 5;
#X obj 249 459 int;
#X floatatom 247 487 5 0 0 0 - - -, f 5;
#X floatatom 151 660 0 0 0 0 - - -;
#X obj 149 605 int;
#X floatatom 147 633 5 0 0 0 - - -, f 5;
#X text 178 661 hours;
#X msg 454 474 0 \, 9;
#X msg 976 498 0;
#X obj 298 349 mod 12;
#X obj 149 581 mod 12;
#X obj -234 73 array define RED 10;
#X obj -232 110 array define GREEN 10;
#X obj -233 157 array define BLUE 10;
#X msg 455 574 127;
#X floatatom 469 505 5 0 0 0 - - -, f 5;
#X obj 456 600 tabwrite BLUE;
#X msg 563 586 \; BLUE const 0 \;;
#X obj 269 656 sel 0 1 2 3 4 5 6 7 8 9 10 11, f 95;
#X msg 598 700 4;
#X msg 647 696 3;
#X msg 696 696 2;
#X msg 733 698 1;
#X msg 316 686 9;
#X msg 364 687 8;
#X msg 410 689 7;
#X msg 458 694 6;
#X msg 506 698 5;
#X msg 546 697 4 \, 5;
#X msg 268 688 0 \, 9;
#X msg 790 712 0;
#X msg 269 788 127;
#X floatatom 283 719 5 0 0 0 - - -, f 5;
#X obj 270 814 tabwrite RED;
#X msg 377 800 \; RED const 0 \;;
#X obj 249 435 / 5;
#X obj -44 880 sel 0 1 2 3 4 5 6 7 8 9 10 11, f 95;
#X msg 285 924 4;
#X msg 334 920 3;
#X msg 383 920 2;
#X msg 420 922 1;
#X msg 3 910 9;
#X msg 51 911 8;
#X msg 97 913 7;
#X msg 145 918 6;
#X msg 193 922 5;
#X msg 233 921 4 \, 5;
#X msg -45 912 0 \, 9;
#X msg 477 936 0;
#X msg -44 1012 127;
#X floatatom -30 943 5 0 0 0 - - -, f 5;
#X obj -43 1038 tabwrite GREEN;
#X msg 64 1024 \; GREEN const 0 \;;
#X obj -120 361 until;
#X obj -120 383 f;
#X obj -89 384 + 1;
#X msg -63 350 0;
#X obj 229 269 t b b b;
#X msg -103 332 10;
#X obj -297 513 array get RED 0 1;
#X msg -241 635 16 \$1 \$2 \$3 \$4 0;
#X msg -113 634 17;
#X obj -241 681 s 0-CP-SYSEX;
#X obj -65 297 t b b b;
#X obj -120 405 t f f f f;
#X obj -231 577 pack f f f f;
#X obj -177 518 array get GREEN 0 1;
#X obj -13 512 array get BLUE 0 1;
#X obj 416 383 t f b;
#X obj 483 543 t b f;
#X obj 252 556 t f b;
#X obj 283 748 t b f;
#X obj 124 755 t f b;
#X obj -30 972 t b f;
#X connect 5 0 33 0;
#X connect 5 1 58 0;
#X connect 5 2 32 0;
#X connect 6 0 93 0;
#X connect 9 0 80 0;
#X connect 10 0 9 0;
#X connect 11 0 12 0;
#X connect 12 0 91 0;
#X connect 13 0 30 0;
#X connect 13 1 18 0;
#X connect 13 2 19 0;
#X connect 13 3 20 0;
#X connect 13 4 21 0;
#X connect 13 5 22 0;
#X connect 13 6 23 0;
#X connect 13 7 14 0;
#X connect 13 8 15 0;
#X connect 13 9 16 0;
#X connect 13 10 17 0;
#X connect 13 11 31 0;
#X connect 14 0 38 0;
#X connect 15 0 38 0;
#X connect 16 0 38 0;
#X connect 17 0 38 0;
#X connect 18 0 38 0;
#X connect 19 0 38 0;
#X connect 20 0 38 0;
#X connect 21 0 38 0;
#X connect 22 0 38 0;
#X connect 23 0 38 0;
#X connect 24 0 25 0;
#X connect 25 0 6 0;
#X connect 26 0 95 0;
#X connect 27 0 28 0;
#X connect 28 0 26 0;
#X connect 30 0 38 0;
#X connect 31 0 38 0;
#X connect 32 0 11 0;
#X connect 33 0 27 0;
#X connect 37 0 39 0;
#X connect 38 0 92 0;
#X connect 41 0 52 0;
#X connect 41 1 46 0;
#X connect 41 2 47 0;
#X connect 41 3 48 0;
#X connect 41 4 49 0;
#X connect 41 5 50 0;
#X connect 41 6 51 0;
#X connect 41 7 42 0;
#X connect 41 8 43 0;
#X connect 41 9 44 0;
#X connect 41 10 45 0;
#X connect 41 11 53 0;
#X connect 42 0 55 0;
#X connect 43 0 55 0;
#X connect 44 0 55 0;
#X connect 45 0 55 0;
#X connect 46 0 55 0;
#X connect 47 0 55 0;
#X connect 48 0 55 0;
#X connect 49 0 55 0;
#X connect 50 0 55 0;
#X connect 51 0 55 0;
#X connect 52 0 55 0;
#X connect 53 0 55 0;
#X connect 54 0 56 0;
#X connect 55 0 94 0;
#X connect 58 0 24 0;
#X connect 59 0 70 0;
#X connect 59 1 64 0;
#X connect 59 2 65 0;
#X connect 59 3 66 0;
#X connect 59 4 67 0;
#X connect 59 5 68 0;
#X connect 59 6 69 0;
#X connect 59 7 60 0;
#X connect 59 8 61 0;
#X connect 59 9 62 0;
#X connect 59 10 63 0;
#X connect 59 11 71 0;
#X connect 60 0 73 0;
#X connect 61 0 73 0;
#X connect 62 0 73 0;
#X connect 63 0 73 0;
#X connect 64 0 73 0;
#X connect 65 0 73 0;
#X connect 66 0 73 0;
#X connect 67 0 73 0;
#X connect 68 0 73 0;
#X connect 69 0 73 0;
#X connect 70 0 73 0;
#X connect 71 0 73 0;
#X connect 72 0 74 0;
#X connect 73 0 96 0;
#X connect 76 0 77 0;
#X connect 77 0 78 0;
#X connect 77 0 87 0;
#X connect 78 0 77 1;
#X connect 79 0 77 1;
#X connect 80 0 86 0;
#X connect 80 1 5 0;
#X connect 81 0 76 0;
#X connect 82 0 88 1;
#X connect 83 0 85 0;
#X connect 84 0 85 0;
#X connect 86 0 84 0;
#X connect 86 1 81 0;
#X connect 86 2 79 0;
#X connect 87 0 88 0;
#X connect 87 1 82 0;
#X connect 87 2 89 0;
#X connect 87 3 90 0;
#X connect 88 0 83 0;
#X connect 89 0 88 2;
#X connect 90 0 88 3;
#X connect 91 0 13 0;
#X connect 91 1 40 0;
#X connect 92 0 37 0;
#X connect 92 1 39 1;
#X connect 93 0 41 0;
#X connect 93 1 57 0;
#X connect 94 0 54 0;
#X connect 94 1 56 1;
#X connect 95 0 59 0;
#X connect 95 1 75 0;
#X connect 96 0 72 0;
#X connect 96 1 74 1;
